<svg id="Layer_2" data-name="Layer 2" xmlns="http://www.w3.org/2000/svg" viewBox="0 0 850.39 850.39">
  <defs>
    <style>
      .cls-1 {
        fill: #fff;
        stroke-width: 5px;
      }

      .cls-1, .cls-2 {
        stroke: #231f20;
        stroke-miterlimit: 10;
      }

      .cls-3 {
        fill: #338c48;
      }

      .cls-3, .cls-4, .cls-5 {
        stroke-width: 0px;
      }

      .cls-2 {
        fill: none;
        stroke-width: 10px;
      }

      .cls-4 {
        fill: #000;
      }

      .cls-5 {
        fill: #db293c;
      }
    </style>
  </defs>
  <path class="cls-5" d="M76.55,577.95c15.45-26.43,30.77-52.94,46.39-79.28,80.55-135.84,161.17-271.63,241.76-407.44,12.12-20.42,24.15-40.89,36.39-61.24,12.65-21.03,35.71-21.09,48.23-.02,80.52,135.54,160.96,271.14,241.41,406.72,27.05,45.59,54.07,91.19,81.08,136.81.83,1.4,1.36,2.96,2.03,4.45-30.59,32.05-66.8,55.83-107.35,73.34-67.23,29.02-138.16,39.96-210.63,42.55-58.68,2.1-117.11-.98-174.84-12.85-77.45-15.93-148.44-44.64-204.48-103.04ZM453.14,203.04c.88-17.02-2.99-27.13-9.46-36.45-9.48-13.65-27.26-13.77-36.81-.36-13.24,18.58-12.7,38.56-4.36,58.24,8.53,20.14,29.27,21.74,42.38,4.36,7.03-9.33,7.69-20.3,8.25-25.78ZM311.8,371.02c-1.36,4.97,1.62,13.12,4.77,20.51,9.21,21.63,27.37,25.84,40.45,10.59,16.46-19.18,16.33-49.29-.81-68.32-7.99-8.87-19.2-10.5-28.77-3.2-11.99,9.14-14.66,22.62-15.64,40.42ZM538.17,368.42c1.06-9.82-1.92-18.69-6.38-27.06-9.93-18.62-29.76-20.7-41.29-3.06-4.46,6.83-6.9,13.88-8.07,21.27-2.45,15.47.3,30.24,10.57,42.68,7.32,8.87,24.16,11.88,32.77,1.81,9.15-10.71,11.79-22.58,12.41-35.64ZM581.26,535.24c0,15.96.91,22.28,6.47,30.35,13,18.88,26.54,21.73,40.32,4.26,14.43-18.3,13.31-48.95-2.8-66.41-9.87-10.7-24.82-8.98-33.69,2.26-7.96,10.09-10,21.66-10.3,29.55ZM269.13,545.16c0-19.17-3.13-29.39-10.16-39.04-9.95-13.66-29.15-12.85-37.82,1.98-11.28,19.29-11.71,39.23-1.2,58.93,8.78,16.46,24.3,18.34,37.41,5.37,9.33-9.24,11.66-20.79,11.78-27.24ZM453.55,572.5c-.14-15.46-2.59-26.06-8.33-35.77-8.38-14.19-26.33-16.5-36.89-3.94-15.14,18.02-17.24,53.19,4.78,72.81,6.33,5.64,19.46,4.94,25.18-1.1,9.6-10.14,15.52-21.89,15.26-32Z"/>
  <path class="cls-3" d="M810.37,639.09c7.39,12.31,15.16,24.41,22.05,37,6.25,11.41,4.22,22.33-4.16,32.24-22.29,26.36-49.64,46.2-79.83,62.46-54.18,29.18-112.57,45.17-172.95,54.39-85.19,13.01-170.72,13.96-256.43,5.53-63.29-6.23-125.03-18.93-183.77-43.92-42.62-18.13-81.63-41.77-112.22-77.45-10.47-12.21-11.37-22.51-3.39-36.37,6.34-11,12.7-21.98,19.05-32.98,2.76-1.06,3.97,1.1,5.41,2.65,35.67,38.2,79.62,63.55,127.9,82.06,58.53,22.44,119.49,33.26,181.77,37.78,75.58,5.49,150.82,3.18,225.48-10.37,55.21-10.02,108.18-26.75,157.21-54.73,27.58-15.74,51.8-35.63,73.87-58.31Z"/>
  <path class="cls-1" d="M810.37,639.09c-22.06,22.68-46.29,42.58-73.87,58.31-49.03,27.98-102,44.71-157.21,54.73-74.66,13.55-149.89,15.86-225.48,10.37-62.29-4.53-123.24-15.34-181.77-37.78-48.28-18.51-92.22-43.86-127.9-82.06-1.45-1.55-2.66-3.72-5.41-2.65,5.47-5.38,7.87-12.57,11.31-19.15,7.61-14.56,18.3-27.32,24.96-42.44.14-.32,1.01-.31,1.54-.45,56.04,58.4,127.02,87.12,204.48,103.04,57.73,11.87,116.16,14.95,174.84,12.85,72.47-2.59,143.4-13.52,210.63-42.55,40.55-17.51,76.76-41.29,107.35-73.34,4.93,1.28,4.44,6.39,6.41,9.62,10.34,16.99,20.13,34.3,30.11,51.51Z"/>
  <path class="cls-4" d="M453.14,203.26c-.56,5.51-1.21,16.53-8.25,25.91-13.11,17.46-33.85,15.85-42.38-4.38-8.34-19.78-8.88-39.85,4.36-58.52,9.55-13.47,27.33-13.35,36.81.37,6.47,9.37,10.34,19.53,9.46,36.62Z"/>
  <path class="cls-4" d="M311.8,371.02c.99-17.79,3.66-31.27,15.64-40.42,9.57-7.3,20.78-5.67,28.77,3.2,17.15,19.03,17.27,49.14.81,68.32-13.09,15.25-31.25,11.04-40.45-10.59-3.15-7.39-6.13-15.54-4.77-20.51Z"/>
  <path class="cls-4" d="M538.17,368.13c-.62,13.14-3.25,25.1-12.41,35.89-8.61,10.15-25.44,7.11-32.77-1.82-10.26-12.52-13.01-27.4-10.57-42.98,1.17-7.44,3.6-14.54,8.07-21.42,11.53-17.76,31.36-15.68,41.29,3.08,4.46,8.43,7.44,17.36,6.38,27.25Z"/>
  <path class="cls-4" d="M581.26,534.92c.3-7.94,2.34-19.59,10.3-29.76,8.87-11.32,23.82-13.05,33.69-2.28,16.12,17.59,17.23,48.45,2.8,66.88-13.78,17.6-27.32,14.73-40.32-4.29-5.56-8.12-6.46-14.49-6.47-30.56Z"/>
  <path class="cls-4" d="M269.13,545.16c-.12,6.45-2.45,18-11.78,27.24-13.11,12.98-28.62,11.09-37.41-5.37-10.51-19.69-10.08-39.64,1.2-58.93,8.67-14.83,27.88-15.64,37.82-1.98,7.03,9.65,10.17,19.87,10.16,39.04Z"/>
  <path class="cls-4" d="M453.55,572.5c.27,10.11-5.66,21.86-15.26,32-5.72,6.04-18.85,6.73-25.18,1.1-22.03-19.62-19.92-54.8-4.78-72.81,10.55-12.56,28.51-10.25,36.89,3.94,5.74,9.71,8.19,20.31,8.33,35.77Z"/>
  <path class="cls-2" d="M75.88,577.97c-.53.14-1.4.14-1.54.45-6.66,15.13-17.35,27.88-24.96,42.44-3.44,6.58-5.84,13.77-11.31,19.15-6.35,10.99-12.71,21.98-19.05,32.98-7.98,13.85-7.08,24.15,3.39,36.37,30.59,35.68,69.6,59.32,112.22,77.45,58.74,24.98,120.48,37.69,183.77,43.92,85.71,8.43,171.23,7.48,256.43-5.53,60.38-9.22,118.77-25.21,172.95-54.39,30.19-16.26,57.54-36.1,79.83-62.46,8.38-9.9,10.4-20.82,4.16-32.24-6.89-12.58-14.66-24.68-22.05-37-9.98-17.2-19.78-34.52-30.11-51.51-1.97-3.23-1.48-8.34-6.41-9.62-.67-1.49-1.2-3.06-2.03-4.45-27.01-45.61-54.03-91.22-81.08-136.81-80.45-135.58-160.89-271.18-241.41-406.72-12.52-21.07-35.58-21.01-48.23.02-12.24,20.34-24.28,40.82-36.39,61.24-80.6,135.81-161.22,271.6-241.76,407.44-15.62,26.34-30.93,52.85-46.39,79.28M92.69,594.21"/>
</svg>